PathFileType	4	(X/Y/Z)	Static_1_OpenSim.trc																																																																																																																																								
DataRate	CameraRate	NumFrames	NumMarkers	Units	OrigDataRate	OrigDataStartFrame	OrigNumFrames																																																																																																																																				
100	100	4	46	mm	100	350	559																																																																																																																																				
Frame#	Time	R.Acromium			L.Acromium			Sternum			R.Bicep			L.Bicep			R.Elbow			L.Elbow			R.Wrist.Med			R.Wrist.Lat			L.Wrist.Med			L.Wrist.Lat			R.ASIS			R.PSIS			S2			L.PSIS			L.ASIS			R.TH1			R.TH2			R.TH3			R.Knee			R.SH1			R.SH2			R.SH3			R.SH4			R.Ankle			R.Heel			R.MT5			R.MT1			R.Toe.Tip			L.TH1			L.TH2			L.TH3			L.TH4			L.Knee			L.SH1			L.SH2			L.SH3			L.Ankle			L.Heel			L.MT5			L.MT1			L.Toe.Tip			R.MKnee			R.MAnkle			L.MKnee			L.MAnkle		
		X1	Y1	Z1	X2	Y2	Z2	X3	Y3	Z3	X4	Y4	Z4	X5	Y5	Z5	X6	Y6	Z6	X7	Y7	Z7	X8	Y8	Z8	X9	Y9	Z9	X10	Y10	Z10	X11	Y11	Z11	X12	Y12	Z12	X13	Y13	Z13	X14	Y14	Z14	X15	Y15	Z15	X16	Y16	Z16	X17	Y17	Z17	X18	Y18	Z18	X19	Y19	Z19	X20	Y20	Z20	X21	Y21	Z21	X22	Y22	Z22	X23	Y23	Z23	X24	Y24	Z24	X25	Y25	Z25	X26	Y26	Z26	X27	Y27	Z27	X28	Y28	Z28	X29	Y29	Z29	X30	Y30	Z30	X31	Y31	Z31	X32	Y32	Z32	X33	Y33	Z33	X34	Y34	Z34	X35	Y35	Z35	X36	Y36	Z36	X37	Y37	Z37	X38	Y38	Z38	X39	Y39	Z39	X40	Y40	Z40	X41	Y41	Z41	X42	Y42	Z42	X43	Y43	Z43	X44	Y44	Z44	X45	Y45	Z45	X46	Y46	Z46
																																																																																																																																											
350	3.49	942.1674	1484.063	-324.0637	905.7994	1482.3281	-754.4848	1035.2013	1303.8098	-543.9076	956.7795	1262.9932	-295.8017	923.9923	1259.365	-782.3238	903.1886	1138.1279	-250.4103	871.7377	1139.57	-817.3764	1033.2429	907.2601	-274.2603	982.5444	896.3077	-234.4806	996.7261	911.4955	-802.6951	947.2458	904.1917	-842.2913	1003.855	1015.139	-425.6281	810.7504	1048.9351	-479.8064	799.0325	1038.2446	-534.8156	801.3447	1046.8944	-605.188	986.649	1013.6984	-676.9129	972.3643	766.7626	-342.503	889.8258	766.7767	-337.9837	889.6985	656.6101	-343.7545	918.2198	523.1692	-359.4633	885.3025	408.5435	-328.7901	883.9324	295.6188	-326.2187	809.3973	410.2881	-361.3048	807.2468	297.1687	-351.7929	858.791	92.0118	-349.2578	809.2166	56.0227	-423.7778	952.1752	32.7902	-297.8253	1013.4403	37.7162	-392.2386	1050.4622	47.7517	-328.3842	940.3264	774.3668	-748.8585	931.4694	667.5573	-749.5942	855.4519	778.2594	-742.1929	851.946	668.1998	-735.211	885.6753	528.6469	-727.1804	872.7604	419.8792	-756.6788	791.755	422.7799	-743.5496	790.9172	312.7901	-742.2728	839.2501	92.9926	-737.5757	785.346	52.6757	-668.0223	926.8018	32.329	-791.993	990.7333	36.3772	-696.4911	1030.921	45.7032	-765.5402	921.2408	503.2007	-470.6086	895.5388	99.8777	-434.2396	905.466	502.937	-618.7728	874.0826	105.4438	-654.5631
351	3.5	942.1555	1484.1215	-324.1209	905.7053	1482.3461	-754.6022	1035.2268	1303.8152	-543.9865	956.8018	1263.0209	-295.8862	923.9047	1259.3249	-782.3169	903.1588	1138.1783	-250.4157	871.6049	1139.5615	-817.356	1033.2421	907.0693	-274.2961	982.7653	896.3736	-234.3557	996.656	911.4632	-802.7264	947.1711	904.1602	-842.2991	1003.8409	1015.1352	-425.6303	810.7045	1048.9807	-479.8445	799.0329	1038.2675	-534.7999	801.32	1046.9121	-605.2303	986.65	1013.7162	-676.9405	972.371	766.7687	-342.5175	889.8439	766.8157	-337.9397	889.6612	656.6249	-343.7905	918.2117	523.1724	-359.5096	885.3342	408.551	-328.7901	883.9265	295.623	-326.2212	809.4026	410.2862	-361.3163	807.2365	297.1759	-351.852	858.7505	92.0248	-349.2776	809.2469	56.0373	-423.7733	952.2093	32.8009	-297.8353	1013.4286	37.7364	-392.2532	1050.4531	47.7996	-328.372	940.324	774.4132	-748.9533	931.4772	667.5646	-749.5862	855.48	778.2113	-742.2499	851.9724	668.0878	-735.3355	885.6953	528.6635	-727.1918	872.7672	419.8872	-756.6709	791.7672	422.7878	-743.5543	790.8813	312.7849	-742.2846	839.2309	92.9631	-737.5904	785.332	52.6502	-668.0485	926.8068	32.3183	-792.0188	990.7331	36.3525	-696.4952	1030.9335	45.7175	-765.5393	921.2554	503.2321	-470.5923	895.6056	99.9016	-434.2636	905.4775	502.9682	-618.7799	874.0986	105.4881	-654.577
352	3.51	942.1354	1484.1363	-324.1106	905.5981	1482.3778	-754.6546	1035.2126	1303.807	-544.0148	956.7972	1263.0439	-295.8625	923.863	1259.3353	-782.3294	903.1547	1138.1825	-250.4533	871.5159	1139.555	-817.389	1033.3148	907.3147	-274.3021	982.5634	896.3507	-234.6025	996.5728	911.4589	-802.6964	947.098	904.1294	-842.2735	1003.863	1015.1598	-425.6384	810.6807	1049.0045	-479.8421	798.9805	1038.2778	-534.8106	801.307	1046.9117	-605.2304	986.6633	1013.7219	-676.915	972.3644	766.7597	-342.5184	889.8228	766.8146	-337.9469	889.5738	656.7632	-343.7213	918.2476	523.1812	-359.5125	885.3521	408.5559	-328.8027	883.9374	295.6429	-326.2054	809.4366	410.2943	-361.2697	807.226	297.1556	-351.8257	858.8129	92.0372	-349.2709	809.2387	56.0525	-423.774	952.2526	32.7775	-297.8534	1013.4212	37.755	-392.2376	1050.4568	47.8228	-328.4074	940.3395	774.358	-748.5235	931.5021	667.5752	-749.5733	855.4144	778.2617	-742.2392	851.8952	668.2175	-735.2163	885.6854	528.6908	-727.1861	872.7835	419.8957	-756.6612	791.7733	422.8244	-743.5515	790.8967	312.8032	-742.2717	839.2774	92.9752	-737.5806	785.3375	52.6697	-668.041	926.8314	32.3259	-792.0003	990.7829	36.3779	-696.4911	1030.9473	45.7371	-765.5085	921.2923	503.196	-470.5969	895.5938	99.878	-434.2446	905.4748	502.9713	-618.8152	874.1412	105.458	-654.5832
353	3.52	942.1126	1484.1414	-324.176	905.4973	1482.371	-754.718	1035.1473	1303.7223	-544.0467	956.7978	1263.0411	-295.9207	923.8008	1259.3129	-782.332	903.1608	1138.1871	-250.4855	871.3821	1139.5383	-817.4086	1033.317	907.3216	-274.4105	982.6066	896.3503	-234.6232	996.4796	911.4428	-802.6993	947.0029	904.0865	-842.2748	1003.8171	1015.1549	-425.6467	810.647	1049.0064	-479.8315	798.8782	1038.2425	-534.8344	801.2497	1046.9159	-605.2018	986.6537	1013.7552	-676.9203	972.3831	766.7696	-342.5345	889.812	766.7992	-337.9546	889.6679	656.6097	-343.7498	918.2486	523.1696	-359.5305	885.3614	408.5214	-328.784	883.957	295.6124	-326.2128	809.45	410.2912	-361.3082	807.227	297.1798	-351.8888	858.7927	91.9934	-349.3186	809.2538	56.0651	-423.7551	952.2584	32.7779	-297.8577	1013.4274	37.7616	-392.2106	1050.4482	47.8131	-328.4051	940.3191	774.4131	-748.7186	931.4766	667.6183	-749.535	855.3575	778.3267	-742.1254	851.8657	668.231	-735.207	885.6681	528.6545	-727.1553	872.7784	419.9031	-756.684	791.7555	422.7864	-743.5055	790.8592	312.8144	-742.2477	839.2883	93.0101	-737.5444	785.3556	52.6936	-668.0114	926.8192	32.3277	-791.9774	990.7974	36.4142	-696.482	1030.9358	45.7788	-765.5097	921.2941	503.2079	-470.6006	895.6038	99.8737	-434.2276	905.4638	502.9729	-618.8146	874.1038	105.4667	-654.6135
